<svg width="30" height="30" viewBox="0 0 30 30" fill="none" xmlns="http://www.w3.org/2000/svg">
<g clip-path="url(#clip0)">
<path d="M28.3423 0.000976562H1.65574C0.741924 0.000976562 0 0.741418 0 1.65672V28.3433C0 29.2586 0.741924 30 1.65574 30H16.023V18.3826H12.1138V13.8545H16.023V10.5154C16.023 6.64124 18.3885 4.53056 21.8453 4.53056C23.5025 4.53056 24.9236 4.65455 25.338 4.70839V8.75785L22.9404 8.75884C21.0609 8.75884 20.6983 9.65241 20.6983 10.9629V13.853H25.1824L24.5961 18.3806H20.6978V29.9985H28.3418C29.2566 29.9985 29.999 29.2561 29.999 28.3433V1.65573C29.9985 0.741419 29.2571 0.000976562 28.3423 0.000976562Z" fill="#D5AB17"/>
</g>
<defs>
<clipPath id="clip0">
<rect width="30" height="29.9995" fill="white"/>
</clipPath>
</defs>
</svg>
