<svg width="20" height="20" viewBox="0 0 20 20" fill="none" xmlns="http://www.w3.org/2000/svg">
<path d="M14.2265 12.4587L19.4553 17.6875C19.9435 18.1757 19.9435 18.9672 19.4553 19.4553C18.9672 19.9435 18.1757 19.9435 17.6875 19.4553L12.4587 14.2265C11.1654 15.1625 9.57571 15.7143 7.85714 15.7143C3.51776 15.7143 0 12.1965 0 7.85714C0 3.51776 3.51776 0 7.85714 0C12.1965 0 15.7143 3.51776 15.7143 7.85714C15.7143 9.57571 15.1625 11.1654 14.2265 12.4587ZM7.85714 13.2143C10.8158 13.2143 13.2143 10.8158 13.2143 7.85714C13.2143 4.89847 10.8158 2.5 7.85714 2.5C4.89847 2.5 2.5 4.89847 2.5 7.85714C2.5 10.8158 4.89847 13.2143 7.85714 13.2143Z" fill="#D5AB17"/>
</svg>
