<svg width="64" height="14" viewBox="0 0 64 14" fill="none" xmlns="http://www.w3.org/2000/svg">
<path d="M1 4.25003C1 4.25003 3.72134 2.00003 7.07829 2C13.1566 1.99994 12.521 6.50005 19.2349 6.50005C25.9488 6.50005 24.6776 2 31.3915 2C38.1054 2 36.8342 6.50005 43.548 6.50005C50.2619 6.50005 48.4107 1.99999 55.7046 2C59.733 2 62.9986 4.70003 62.9986 4.70003" stroke="#D5AB17" stroke-opacity="0.4" stroke-width="2"/>
<path d="M1 9.75003C1 9.75003 3.72134 7.50003 7.07829 7.5C13.1566 7.49994 12.521 12.0001 19.2349 12.0001C25.9488 12.0001 24.6776 7.5 31.3915 7.5C38.1054 7.5 36.8342 12.0001 43.548 12.0001C50.2619 12.0001 48.4107 7.49999 55.7046 7.5C59.733 7.5 62.9986 10.2 62.9986 10.2" stroke="#D5AB17" stroke-opacity="0.4" stroke-width="2"/>
</svg>
